<mxfile host="app.diagrams.net" modified="2022-10-24T20:34:17.598Z" agent="5.0 (Windows NT 10.0; Win64; x64) AppleWebKit/537.36 (KHTML, like Gecko) Chrome/106.0.0.0 Safari/537.36" etag="UgoNYUTuKbUy3MHN3EJP" version="20.5.1" type="github">
  <diagram name="Page-1" id="efa7a0a1-bf9b-a30e-e6df-94a7791c09e9">
    <mxGraphModel dx="868" dy="482" grid="1" gridSize="10" guides="1" tooltips="1" connect="1" arrows="1" fold="1" page="1" pageScale="1" pageWidth="826" pageHeight="1169" background="none" math="0" shadow="0">
      <root>
        <mxCell id="0" />
        <mxCell id="1" parent="0" />
        <mxCell id="102" value="Use" style="endArrow=open;endSize=12;dashed=1" parent="1" edge="1">
          <mxGeometry x="266" y="310" as="geometry">
            <mxPoint x="427.0800000000004" y="411.64000000000055" as="sourcePoint" />
            <mxPoint x="306" y="411.6400000000003" as="targetPoint" />
          </mxGeometry>
        </mxCell>
        <mxCell id="kxRyARiAPBWNzmmKZJo8-114" value="&lt;p style=&quot;margin: 0px; margin-top: 4px; text-align: center; text-decoration: underline;&quot;&gt;&lt;strong&gt;Composição&lt;/strong&gt;&lt;/p&gt;&lt;hr&gt;&lt;p style=&quot;margin: 0px; margin-left: 8px;&quot;&gt;&lt;br&gt;&lt;/p&gt;" style="verticalAlign=top;align=left;overflow=fill;fontSize=12;fontFamily=Helvetica;html=1;strokeColor=#003366;shadow=1;fillColor=#D4E1F5;fontColor=#003366" parent="1" vertex="1">
          <mxGeometry x="46" y="40" width="160" height="60" as="geometry" />
        </mxCell>
        <mxCell id="kxRyARiAPBWNzmmKZJo8-115" value="&lt;p style=&quot;margin: 0px; margin-top: 4px; text-align: center; text-decoration: underline;&quot;&gt;&lt;b&gt;Insumo&lt;/b&gt;&lt;/p&gt;&lt;hr&gt;&lt;p style=&quot;margin: 0px; margin-left: 8px;&quot;&gt;&lt;br&gt;&lt;/p&gt;" style="verticalAlign=top;align=left;overflow=fill;fontSize=12;fontFamily=Helvetica;html=1;strokeColor=#003366;shadow=1;fillColor=#D4E1F5;fontColor=#003366" parent="1" vertex="1">
          <mxGeometry x="352.5" y="43" width="160" height="60" as="geometry" />
        </mxCell>
        <mxCell id="kxRyARiAPBWNzmmKZJo8-119" value="&lt;p style=&quot;margin: 0px; margin-top: 4px; text-align: center; text-decoration: underline;&quot;&gt;&lt;b&gt;InsumoEspecificado&lt;/b&gt;&lt;/p&gt;&lt;hr&gt;&lt;p style=&quot;margin: 0px; margin-left: 8px;&quot;&gt;&lt;br&gt;&lt;/p&gt;" style="verticalAlign=top;align=left;overflow=fill;fontSize=12;fontFamily=Helvetica;html=1;strokeColor=#003366;shadow=1;fillColor=#D4E1F5;fontColor=#003366" parent="1" vertex="1">
          <mxGeometry x="682.75" y="43" width="160" height="60" as="geometry" />
        </mxCell>
        <mxCell id="kxRyARiAPBWNzmmKZJo8-127" value="Relation" style="endArrow=open;endSize=12;startArrow=diamondThin;startSize=14;startFill=0;edgeStyle=orthogonalEdgeStyle;rounded=0;elbow=vertical;html=1;" parent="1" edge="1">
          <mxGeometry relative="1" as="geometry">
            <mxPoint x="206" y="80" as="sourcePoint" />
            <mxPoint x="352.5" y="80" as="targetPoint" />
            <Array as="points">
              <mxPoint x="310" y="80" />
              <mxPoint x="310" y="80" />
            </Array>
          </mxGeometry>
        </mxCell>
        <mxCell id="kxRyARiAPBWNzmmKZJo8-128" value="0..n" style="edgeLabel;resizable=0;html=1;align=left;verticalAlign=top;" parent="kxRyARiAPBWNzmmKZJo8-127" connectable="0" vertex="1">
          <mxGeometry x="-1" relative="1" as="geometry" />
        </mxCell>
        <mxCell id="kxRyARiAPBWNzmmKZJo8-129" value="1" style="edgeLabel;resizable=0;html=1;align=right;verticalAlign=top;" parent="kxRyARiAPBWNzmmKZJo8-127" connectable="0" vertex="1">
          <mxGeometry x="1" relative="1" as="geometry" />
        </mxCell>
        <mxCell id="xdecVxI8g7WjwIrV84c3-114" value="Text" style="edgeLabel;html=1;align=center;verticalAlign=middle;resizable=0;points=[];" vertex="1" connectable="0" parent="kxRyARiAPBWNzmmKZJo8-127">
          <mxGeometry x="-0.36" y="1" relative="1" as="geometry">
            <mxPoint as="offset" />
          </mxGeometry>
        </mxCell>
        <mxCell id="kxRyARiAPBWNzmmKZJo8-130" value="" style="endArrow=open;html=1;endSize=12;startArrow=diamondThin;startSize=14;startFill=0;edgeStyle=orthogonalEdgeStyle;rounded=0;elbow=vertical;" parent="1" source="kxRyARiAPBWNzmmKZJo8-115" target="kxRyARiAPBWNzmmKZJo8-119" edge="1">
          <mxGeometry relative="1" as="geometry">
            <mxPoint x="526" y="70" as="sourcePoint" />
            <mxPoint x="676" y="70" as="targetPoint" />
            <Array as="points">
              <mxPoint x="590" y="70" />
              <mxPoint x="590" y="70" />
            </Array>
          </mxGeometry>
        </mxCell>
        <mxCell id="kxRyARiAPBWNzmmKZJo8-131" value="0..n" style="edgeLabel;resizable=0;html=1;align=left;verticalAlign=top;" parent="kxRyARiAPBWNzmmKZJo8-130" connectable="0" vertex="1">
          <mxGeometry x="-1" relative="1" as="geometry" />
        </mxCell>
        <mxCell id="kxRyARiAPBWNzmmKZJo8-132" value="1" style="edgeLabel;resizable=0;html=1;align=right;verticalAlign=top;" parent="kxRyARiAPBWNzmmKZJo8-130" connectable="0" vertex="1">
          <mxGeometry x="1" relative="1" as="geometry" />
        </mxCell>
        <mxCell id="xdecVxI8g7WjwIrV84c3-155" value="Text" style="edgeLabel;html=1;align=center;verticalAlign=middle;resizable=0;points=[];" vertex="1" connectable="0" parent="kxRyARiAPBWNzmmKZJo8-130">
          <mxGeometry x="0.6388" relative="1" as="geometry">
            <mxPoint as="offset" />
          </mxGeometry>
        </mxCell>
        <mxCell id="xdecVxI8g7WjwIrV84c3-124" style="edgeStyle=orthogonalEdgeStyle;rounded=0;orthogonalLoop=1;jettySize=auto;html=1;" edge="1" parent="1" source="xdecVxI8g7WjwIrV84c3-115" target="xdecVxI8g7WjwIrV84c3-116">
          <mxGeometry relative="1" as="geometry" />
        </mxCell>
        <mxCell id="xdecVxI8g7WjwIrV84c3-138" style="edgeStyle=orthogonalEdgeStyle;rounded=0;orthogonalLoop=1;jettySize=auto;html=1;" edge="1" parent="1" source="xdecVxI8g7WjwIrV84c3-115" target="xdecVxI8g7WjwIrV84c3-118">
          <mxGeometry relative="1" as="geometry" />
        </mxCell>
        <mxCell id="xdecVxI8g7WjwIrV84c3-146" style="edgeStyle=orthogonalEdgeStyle;rounded=0;orthogonalLoop=1;jettySize=auto;html=1;" edge="1" parent="1" source="xdecVxI8g7WjwIrV84c3-115" target="xdecVxI8g7WjwIrV84c3-120">
          <mxGeometry relative="1" as="geometry">
            <Array as="points">
              <mxPoint x="206" y="424" />
            </Array>
          </mxGeometry>
        </mxCell>
        <mxCell id="xdecVxI8g7WjwIrV84c3-115" value="1: KIT - Cartão Cliente" style="rounded=1;whiteSpace=wrap;html=1;" vertex="1" parent="1">
          <mxGeometry x="76" y="169" width="120" height="60" as="geometry" />
        </mxCell>
        <mxCell id="xdecVxI8g7WjwIrV84c3-135" style="edgeStyle=orthogonalEdgeStyle;rounded=0;orthogonalLoop=1;jettySize=auto;html=1;" edge="1" parent="1" source="xdecVxI8g7WjwIrV84c3-116" target="xdecVxI8g7WjwIrV84c3-133">
          <mxGeometry relative="1" as="geometry" />
        </mxCell>
        <mxCell id="xdecVxI8g7WjwIrV84c3-136" style="edgeStyle=orthogonalEdgeStyle;rounded=0;orthogonalLoop=1;jettySize=auto;html=1;" edge="1" parent="1" source="xdecVxI8g7WjwIrV84c3-116" target="xdecVxI8g7WjwIrV84c3-117">
          <mxGeometry relative="1" as="geometry">
            <Array as="points">
              <mxPoint x="493" y="199" />
              <mxPoint x="493" y="174" />
            </Array>
          </mxGeometry>
        </mxCell>
        <mxCell id="xdecVxI8g7WjwIrV84c3-137" style="edgeStyle=orthogonalEdgeStyle;rounded=0;orthogonalLoop=1;jettySize=auto;html=1;exitX=1;exitY=0.75;exitDx=0;exitDy=0;entryX=0;entryY=0.5;entryDx=0;entryDy=0;" edge="1" parent="1" source="xdecVxI8g7WjwIrV84c3-116" target="xdecVxI8g7WjwIrV84c3-134">
          <mxGeometry relative="1" as="geometry" />
        </mxCell>
        <mxCell id="xdecVxI8g7WjwIrV84c3-116" value="1: Cartão Plastico Azul" style="rounded=1;whiteSpace=wrap;html=1;fillColor=#dae8fc;strokeColor=#6c8ebf;" vertex="1" parent="1">
          <mxGeometry x="346" y="184" width="127" height="30" as="geometry" />
        </mxCell>
        <mxCell id="xdecVxI8g7WjwIrV84c3-117" value="1: Cartão Plastico Azul Acoplado" style="rounded=1;whiteSpace=wrap;html=1;fillColor=#dae8fc;strokeColor=#6c8ebf;" vertex="1" parent="1">
          <mxGeometry x="669.79" y="150" width="193.5" height="30" as="geometry" />
        </mxCell>
        <mxCell id="xdecVxI8g7WjwIrV84c3-143" style="edgeStyle=orthogonalEdgeStyle;rounded=0;orthogonalLoop=1;jettySize=auto;html=1;" edge="1" parent="1" source="xdecVxI8g7WjwIrV84c3-118" target="xdecVxI8g7WjwIrV84c3-139">
          <mxGeometry relative="1" as="geometry" />
        </mxCell>
        <mxCell id="xdecVxI8g7WjwIrV84c3-144" style="edgeStyle=orthogonalEdgeStyle;rounded=0;orthogonalLoop=1;jettySize=auto;html=1;" edge="1" parent="1" source="xdecVxI8g7WjwIrV84c3-118" target="xdecVxI8g7WjwIrV84c3-140">
          <mxGeometry relative="1" as="geometry" />
        </mxCell>
        <mxCell id="xdecVxI8g7WjwIrV84c3-145" style="edgeStyle=orthogonalEdgeStyle;rounded=0;orthogonalLoop=1;jettySize=auto;html=1;" edge="1" parent="1" source="xdecVxI8g7WjwIrV84c3-118" target="xdecVxI8g7WjwIrV84c3-141">
          <mxGeometry relative="1" as="geometry">
            <Array as="points">
              <mxPoint x="410" y="379" />
            </Array>
          </mxGeometry>
        </mxCell>
        <mxCell id="xdecVxI8g7WjwIrV84c3-118" value="2: Folha de Berço" style="rounded=1;whiteSpace=wrap;html=1;fillColor=#fff2cc;strokeColor=#d6b656;" vertex="1" parent="1">
          <mxGeometry x="346" y="304" width="127" height="30" as="geometry" />
        </mxCell>
        <mxCell id="xdecVxI8g7WjwIrV84c3-152" style="edgeStyle=orthogonalEdgeStyle;rounded=0;orthogonalLoop=1;jettySize=auto;html=1;" edge="1" parent="1" source="xdecVxI8g7WjwIrV84c3-120" target="xdecVxI8g7WjwIrV84c3-147">
          <mxGeometry relative="1" as="geometry" />
        </mxCell>
        <mxCell id="xdecVxI8g7WjwIrV84c3-153" style="edgeStyle=orthogonalEdgeStyle;rounded=0;orthogonalLoop=1;jettySize=auto;html=1;" edge="1" parent="1" source="xdecVxI8g7WjwIrV84c3-120" target="xdecVxI8g7WjwIrV84c3-150">
          <mxGeometry relative="1" as="geometry">
            <Array as="points">
              <mxPoint x="406" y="464" />
            </Array>
          </mxGeometry>
        </mxCell>
        <mxCell id="xdecVxI8g7WjwIrV84c3-154" style="edgeStyle=orthogonalEdgeStyle;rounded=0;orthogonalLoop=1;jettySize=auto;html=1;exitX=1;exitY=1;exitDx=0;exitDy=0;" edge="1" parent="1" source="xdecVxI8g7WjwIrV84c3-120" target="xdecVxI8g7WjwIrV84c3-151">
          <mxGeometry relative="1" as="geometry">
            <mxPoint x="516" y="504" as="targetPoint" />
            <Array as="points">
              <mxPoint x="486" y="504" />
            </Array>
          </mxGeometry>
        </mxCell>
        <mxCell id="xdecVxI8g7WjwIrV84c3-120" value="3: Envelope Comum Cliente" style="rounded=1;whiteSpace=wrap;html=1;fillColor=#e1d5e7;strokeColor=#9673a6;" vertex="1" parent="1">
          <mxGeometry x="326" y="414" width="160" height="30" as="geometry" />
        </mxCell>
        <mxCell id="xdecVxI8g7WjwIrV84c3-133" value="2: Cartão Plastico Azul Faturado" style="rounded=1;whiteSpace=wrap;html=1;fillColor=#dae8fc;strokeColor=#6c8ebf;" vertex="1" parent="1">
          <mxGeometry x="673.08" y="194" width="193.5" height="30" as="geometry" />
        </mxCell>
        <mxCell id="xdecVxI8g7WjwIrV84c3-134" value="3: Cartão Plastico Azul Comprado" style="rounded=1;whiteSpace=wrap;html=1;fillColor=#dae8fc;strokeColor=#6c8ebf;" vertex="1" parent="1">
          <mxGeometry x="666.5" y="232" width="200.08" height="30" as="geometry" />
        </mxCell>
        <mxCell id="xdecVxI8g7WjwIrV84c3-139" value="4: Folha de Berço Acoplado" style="rounded=1;whiteSpace=wrap;html=1;fillColor=#fff2cc;strokeColor=#d6b656;" vertex="1" parent="1">
          <mxGeometry x="666" y="284" width="193.5" height="30" as="geometry" />
        </mxCell>
        <mxCell id="xdecVxI8g7WjwIrV84c3-140" value="5: Folha de Berço Faturado" style="rounded=1;whiteSpace=wrap;html=1;fillColor=#fff2cc;strokeColor=#d6b656;" vertex="1" parent="1">
          <mxGeometry x="666.5" y="324" width="193.5" height="30" as="geometry" />
        </mxCell>
        <mxCell id="xdecVxI8g7WjwIrV84c3-141" value="6: Folha de Berço&amp;nbsp;Comprado" style="rounded=1;whiteSpace=wrap;html=1;fillColor=#fff2cc;strokeColor=#d6b656;" vertex="1" parent="1">
          <mxGeometry x="666.0000000000001" y="364" width="193.5" height="30" as="geometry" />
        </mxCell>
        <mxCell id="xdecVxI8g7WjwIrV84c3-147" value="&lt;div&gt;7: Envelope Comum Cliente Acoplado&lt;/div&gt;" style="rounded=1;whiteSpace=wrap;html=1;fillColor=#e1d5e7;strokeColor=#9673a6;" vertex="1" parent="1">
          <mxGeometry x="669.5" y="414" width="230" height="30" as="geometry" />
        </mxCell>
        <mxCell id="xdecVxI8g7WjwIrV84c3-150" value="&lt;div&gt;8: Envelope Comum Cliente Faturado&lt;/div&gt;" style="rounded=1;whiteSpace=wrap;html=1;fillColor=#e1d5e7;strokeColor=#9673a6;" vertex="1" parent="1">
          <mxGeometry x="669.5" y="454" width="230" height="30" as="geometry" />
        </mxCell>
        <mxCell id="xdecVxI8g7WjwIrV84c3-151" value="9: Envelope Comum Cliente Comprado" style="rounded=1;whiteSpace=wrap;html=1;fillColor=#e1d5e7;strokeColor=#9673a6;" vertex="1" parent="1">
          <mxGeometry x="666" y="490" width="230" height="30" as="geometry" />
        </mxCell>
      </root>
    </mxGraphModel>
  </diagram>
</mxfile>
